<?xml version="1.0" standalone="no"?>
<!DOCTYPE svg PUBLIC "-//W3C//DTD SVG 20010904//EN"
 "http://www.w3.org/TR/2001/REC-SVG-20010904/DTD/svg10.dtd">
<svg version="1.0" xmlns="http://www.w3.org/2000/svg"
 width="1730.000000pt" height="1730.000000pt" viewBox="0 0 1730.000000 1730.000000"
 preserveAspectRatio="xMidYMid meet">
<metadata>
Created by potrace 1.14, written by Peter Selinger 2001-2017
</metadata>
<g transform="translate(0.000000,1730.000000) scale(0.100000,-0.100000)"
fill="#000000" stroke="none">
<path d="M0 8650 l0 -8650 8650 0 8650 0 0 8650 0 8650 -8650 0 -8650 0 0
-8650z m5800 3960 c885 -51 1682 -364 2356 -927 124 -104 371 -344 420 -409
l26 -33 -75 -103 c-153 -211 -294 -445 -399 -666 l-59 -123 -51 68 c-277 373
-630 674 -1042 889 -235 122 -524 224 -788 278 -380 77 -817 77 -1193 1 -1406
-285 -2421 -1513 -2428 -2940 -2 -506 103 -951 331 -1400 142 -278 322 -525
552 -755 471 -473 1035 -756 1720 -863 113 -18 180 -21 415 -21 299 0 399 9
633 59 451 98 893 306 1251 591 177 142 486 467 582 614 16 25 17 25 82 -110
113 -231 276 -498 439 -717 l31 -42 -41 -48 c-74 -89 -336 -337 -462 -438
-915 -735 -2065 -1028 -3230 -824 -1243 218 -2339 1057 -2891 2214 -445 935
-508 2030 -173 3007 462 1345 1598 2345 2978 2623 359 72 668 95 1016 75z
m6385 0 c1237 -71 2331 -675 3052 -1685 664 -930 890 -2139 612 -3268 -252
-1022 -908 -1911 -1814 -2458 -469 -283 -989 -464 -1550 -540 -195 -26 -625
-37 -827 -20 -821 68 -1557 362 -2203 879 -161 129 -466 436 -599 602 -125
156 -287 397 -375 556 -107 195 -258 529 -249 553 1 5 172 213 378 462 l375
453 8 -45 c4 -24 23 -108 42 -185 134 -556 409 -1039 822 -1445 235 -232 452
-388 738 -535 425 -218 822 -319 1300 -331 254 -6 440 10 675 57 1465 294
2498 1627 2419 3118 -72 1360 -1039 2501 -2369 2795 -229 51 -402 69 -665 69
-1004 -2 -1940 -508 -2502 -1352 -227 -341 -378 -717 -460 -1148 l-8 -43 -373
450 c-205 248 -375 457 -378 465 -13 34 180 444 314 666 594 989 1603 1683
2724 1874 338 58 599 74 913 56z m-6190 -1344 c324 -52 653 -167 920 -321 104
-60 298 -189 315 -210 7 -9 -16 -65 -78 -187 -98 -195 -211 -470 -268 -655
l-37 -121 -91 84 c-524 489 -1284 601 -1917 284 -473 -238 -796 -660 -911
-1190 -19 -92 -22 -133 -22 -330 0 -196 3 -238 22 -330 151 -696 687 -1218
1378 -1341 166 -30 412 -30 578 0 319 57 605 198 858 424 l106 96 26 -87 c71
-232 162 -456 283 -696 l86 -169 -24 -19 c-13 -10 -80 -57 -149 -103 -337
-226 -713 -367 -1140 -427 -140 -19 -565 -16 -703 5 -453 70 -832 222 -1192
478 -585 416 -976 1061 -1086 1789 -26 173 -31 530 -10 695 77 601 326 1121
741 1549 306 315 677 547 1090 681 134 43 337 89 465 104 50 6 101 13 115 15
64 11 550 -3 645 -18z m6375 0 c858 -134 1596 -668 1984 -1436 127 -252 209
-500 257 -780 27 -159 37 -522 20 -696 -77 -771 -497 -1486 -1132 -1926 -347
-241 -720 -387 -1159 -455 -163 -25 -567 -25 -735 0 -483 72 -946 272 -1311
567 -446 360 -773 874 -915 1435 -111 436 -102 946 22 1380 295 1032 1176
1785 2247 1920 146 19 578 13 722 -9z m-3821 -2116 c399 -482 401 -485 401
-530 -1 -45 -5 -50 -411 -540 -226 -272 -414 -496 -419 -498 -18 -7 -93 371
-122 613 -21 173 -17 724 5 900 20 152 54 336 89 483 21 88 23 92 39 75 10
-10 198 -236 418 -503z"/>
<path d="M11775 10308 c-178 -20 -379 -80 -555 -166 -301 -147 -592 -429 -743
-720 -49 -95 -107 -225 -107 -241 0 -3 29 -4 65 -3 62 4 65 2 77 -23 8 -18 9
-34 2 -53 -9 -26 -12 -27 -79 -27 -70 0 -70 0 -76 30 l-6 30 -11 -40 c-89
-321 -91 -624 -4 -930 15 -55 17 -57 22 -30 5 30 6 30 77 33 70 3 73 2 79 -23
3 -14 3 -36 0 -50 -6 -24 -10 -25 -77 -25 -81 0 -79 9 -28 -115 79 -189 200
-366 364 -530 145 -145 267 -234 440 -320 492 -245 1046 -241 1535 11 317 163
596 449 751 769 51 107 58 135 35 135 -18 0 -73 45 -87 72 -9 16 -6 25 12 44
28 30 67 31 103 3 l26 -20 11 28 c18 48 47 193 58 295 21 191 8 385 -39 586
-23 96 -33 107 -65 72 -25 -27 -61 -25 -91 5 -25 25 -25 26 -7 57 10 17 35 40
56 51 20 10 37 24 37 31 0 6 -24 61 -54 121 -320 649 -1004 1024 -1721 943z
m-986 -1142 c7 -8 11 -32 9 -53 l-3 -38 -63 -3 c-38 -2 -69 2 -78 9 -17 14
-18 71 -2 87 17 17 123 16 137 -2z m289 2 c16 -16 15 -73 -2 -87 -9 -7 -40
-11 -78 -9 l-63 3 -3 38 c-2 21 2 45 9 53 14 18 120 19 137 2z m290 3 c9 -5
12 -24 10 -52 l-3 -44 -70 0 c-67 0 -70 1 -79 27 -7 18 -6 35 2 53 10 23 17
25 69 25 32 0 64 -4 71 -9z m291 -5 c7 -8 11 -32 9 -53 l-3 -38 -63 -3 c-38
-2 -69 2 -78 9 -17 14 -18 71 -2 87 17 17 123 16 137 -2z m291 -5 c14 -28 12
-66 -4 -80 -9 -7 -40 -11 -78 -9 l-63 3 -3 44 c-4 54 5 61 80 61 47 0 59 -4
68 -19z m278 10 c9 -5 12 -24 10 -52 l-3 -44 -63 -3 c-38 -2 -69 2 -78 9 -17
14 -18 71 -2 87 14 14 116 16 136 3z m205 -136 c46 -32 57 -67 30 -103 -28
-37 -42 -37 -91 -1 -53 39 -63 71 -31 105 29 30 45 30 92 -1z m939 -21 c24
-41 17 -56 -43 -95 l-50 -32 -24 23 c-41 39 -32 86 25 124 36 24 71 17 92 -20z
m-704 -165 c31 -23 41 -36 37 -50 -3 -10 -8 -28 -11 -39 -10 -36 -41 -44 -79
-20 -35 22 -75 65 -75 82 0 15 52 58 69 58 10 0 36 -14 59 -31z m477 -9 c23
-44 19 -56 -29 -90 -54 -36 -79 -38 -100 -5 -28 43 -21 70 27 99 57 34 83 33
102 -4z m-237 -163 c27 -25 29 -76 5 -105 -10 -11 -36 -23 -58 -27 -34 -5 -44
-2 -60 15 -25 28 -29 86 -7 116 22 30 86 31 120 1z m206 -182 c51 -40 56 -59
25 -99 -24 -31 -41 -33 -77 -8 -15 10 -35 22 -44 25 -25 9 -23 58 3 91 27 34
37 33 93 -9z m-421 -17 c22 -44 17 -57 -36 -92 -49 -33 -60 -33 -91 5 -31 36
-26 51 31 99 48 39 73 36 96 -12z m650 -164 c51 -40 53 -44 35 -77 -28 -54
-59 -59 -111 -16 -41 34 -47 64 -21 104 22 34 42 31 97 -11z m-878 -4 c22 -42
19 -54 -19 -88 -52 -46 -75 -50 -103 -18 -33 38 -29 59 19 100 52 45 82 46
103 6z m-1670 -190 l0 -45 -72 -3 c-70 -3 -73 -2 -79 23 -3 14 -3 36 0 50 6
25 9 26 79 23 l72 -3 0 -45z m290 0 l0 -45 -75 0 -75 0 -3 33 c-6 59 0 63 80
60 l73 -3 0 -45z m290 0 l0 -45 -71 -3 c-69 -3 -72 -2 -78 23 -4 14 -4 36 0
50 6 25 9 26 78 23 l71 -3 0 -45z m290 0 l0 -45 -75 0 -75 0 -3 33 c-6 59 0
63 80 60 l73 -3 0 -45z m291 25 c3 -14 3 -36 0 -50 -6 -25 -9 -26 -79 -23
l-72 3 -3 33 c-6 57 0 62 77 62 67 0 71 -1 77 -25z m279 -25 l0 -45 -72 -3
c-70 -3 -73 -2 -79 23 -3 14 -3 36 0 50 6 25 9 26 79 23 l72 -3 0 -45z"/>
</g>
</svg>
