<?xml version="1.0" standalone="no"?>
<!DOCTYPE svg PUBLIC "-//W3C//DTD SVG 20010904//EN"
 "http://www.w3.org/TR/2001/REC-SVG-20010904/DTD/svg10.dtd">
<svg version="1.0" xmlns="http://www.w3.org/2000/svg"
 width="192.000000pt" height="192.000000pt" viewBox="0 0 192.000000 192.000000"
 preserveAspectRatio="xMidYMid meet">
<metadata>
Created by potrace 1.14, written by Peter Selinger 2001-2017
</metadata>
<g transform="translate(0.000000,192.000000) scale(0.100000,-0.100000)"
fill="#000000" stroke="none">
<path d="M435 1479 c-184 -41 -325 -162 -392 -336 -20 -53 -26 -90 -29 -168
-3 -89 -1 -109 24 -181 67 -191 211 -316 410 -355 156 -30 348 28 460 140 32
33 33 34 16 60 -10 14 -23 35 -28 46 -24 45 -26 45 -68 -1 -25 -27 -70 -59
-116 -82 -71 -35 -82 -37 -166 -37 -111 0 -173 21 -251 82 -186 146 -207 415
-46 586 161 170 423 168 590 -6 l34 -36 16 32 c9 18 25 44 35 59 l18 28 -33
32 c-50 46 -133 97 -197 120 -64 22 -211 31 -277 17z"/>
<path d="M1233 1465 c-38 -12 -90 -34 -116 -49 -87 -52 -183 -161 -216 -247
-9 -24 -5 -32 34 -75 25 -27 44 -52 45 -56 0 -18 20 -6 20 12 0 39 50 131 100
184 157 166 408 168 571 6 157 -156 159 -401 4 -556 -125 -126 -300 -157 -462
-82 -62 28 -163 130 -187 188 -10 25 -24 58 -30 74 l-12 29 -48 -61 -47 -61
17 -33 c79 -154 205 -255 364 -292 279 -65 560 106 634 384 21 80 14 228 -14
305 -83 219 -278 354 -510 352 -52 0 -103 -8 -147 -22z"/>
<path d="M445 1302 c-207 -60 -316 -290 -227 -483 32 -70 57 -101 121 -147 76
-55 188 -78 281 -57 27 6 124 48 138 60 2 2 -47 117 -54 124 -2 2 -12 -3 -21
-11 -107 -94 -284 -52 -345 80 -67 149 39 314 203 314 56 0 86 -9 141 -46 27
-18 28 -18 34 0 4 11 15 38 25 62 18 42 18 42 -4 57 -85 55 -199 74 -292 47z"/>
<path d="M1325 1309 c-172 -32 -297 -188 -289 -364 12 -279 329 -434 557 -272
49 35 106 104 125 152 21 51 29 132 20 191 -30 195 -219 329 -413 293z m153
-145 c60 -24 134 -109 114 -128 -3 -4 0 -11 7 -16 19 -11 18 -109 0 -121 -7
-4 -10 -11 -7 -15 10 -9 -15 -54 -49 -86 -91 -87 -237 -78 -323 20 -42 47 -49
67 -27 75 7 4 6 6 -4 6 -19 1 -27 24 -24 67 2 16 3 35 4 42 1 6 9 12 19 12 14
0 15 2 2 10 -12 7 -12 13 -1 32 58 108 176 149 289 102z"/>
<path d="M1215 1030 c-3 -5 -1 -10 4 -10 6 0 11 5 11 10 0 6 -2 10 -4 10 -3 0
-8 -4 -11 -10z"/>
<path d="M1255 1030 c-3 -5 -1 -10 4 -10 6 0 11 5 11 10 0 6 -2 10 -4 10 -3 0
-8 -4 -11 -10z"/>
<path d="M1290 1030 c0 -5 5 -10 11 -10 5 0 7 5 4 10 -3 6 -8 10 -11 10 -2 0
-4 -4 -4 -10z"/>
<path d="M1330 1030 c0 -5 5 -10 11 -10 5 0 7 5 4 10 -3 6 -8 10 -11 10 -2 0
-4 -4 -4 -10z"/>
<path d="M1405 1030 c-3 -5 1 -10 10 -10 9 0 13 5 10 10 -3 6 -8 10 -10 10 -2
0 -7 -4 -10 -10z"/>
<path d="M1368 1023 c7 -3 16 -2 19 1 4 3 -2 6 -13 5 -11 0 -14 -3 -6 -6z"/>
<path d="M1560 1009 c0 -5 5 -7 10 -4 6 3 10 8 10 11 0 2 -4 4 -10 4 -5 0 -10
-5 -10 -11z"/>
<path d="M1530 984 c0 -8 5 -12 10 -9 6 4 8 11 5 16 -9 14 -15 11 -15 -7z"/>
<path d="M1465 980 c4 -6 11 -8 16 -5 14 9 11 15 -7 15 -8 0 -12 -5 -9 -10z"/>
<path d="M1495 960 c-3 -5 -2 -10 4 -10 5 0 13 5 16 10 3 6 2 10 -4 10 -5 0
-13 -4 -16 -10z"/>
<path d="M1465 940 c-3 -5 1 -10 10 -10 9 0 13 5 10 10 -3 6 -8 10 -10 10 -2
0 -7 -4 -10 -10z"/>
<path d="M1525 940 c-3 -5 1 -10 10 -10 9 0 13 5 10 10 -3 6 -8 10 -10 10 -2
0 -7 -4 -10 -10z"/>
<path d="M1440 909 c0 -5 5 -7 10 -4 6 3 10 8 10 11 0 2 -4 4 -10 4 -5 0 -10
-5 -10 -11z"/>
<path d="M1560 909 c0 -5 5 -7 10 -4 6 3 10 8 10 11 0 2 -4 4 -10 4 -5 0 -10
-5 -10 -11z"/>
<path d="M1250 889 c0 -5 5 -7 10 -4 6 3 10 8 10 11 0 2 -4 4 -10 4 -5 0 -10
-5 -10 -11z"/>
<path d="M1295 890 c3 -5 8 -10 11 -10 2 0 4 5 4 10 0 6 -5 10 -11 10 -5 0 -7
-4 -4 -10z"/>
<path d="M1368 893 c7 -3 16 -2 19 1 4 3 -2 6 -13 5 -11 0 -14 -3 -6 -6z"/>
<path d="M1408 893 c7 -3 16 -2 19 1 4 3 -2 6 -13 5 -11 0 -14 -3 -6 -6z"/>
<path d="M868 1073 c-15 -59 -6 -248 12 -241 4 2 31 31 60 65 58 70 59 60 -15
146 -44 52 -51 55 -57 30z"/>
</g>
</svg>
